# xmcd
#
# Track frame offsets:
#	150
#	16306
#	26823
#	41138
#	56574
#	75851
#	92791
#	113765
#	126727
#	140276
#	157323
#	175825
#	193786
#	212544
#	230146
#	247579
#	271501
#
# Disc length: 3825 seconds
#
# Revision: 0
# Processed by: cddbd v1.5.2PL0 Copyright (c) Steve Scherf et al.
# Submitted via: EasyCDDAExtractor 16.0.8.1
#
DISCID=e50eef11
DTITLE=Varios Artistas - Sony Music Internacional Vol. 3
DYEAR=2002
DGENRE=Pop Rock
TTITLE0=Destiny's Child - Lose My Breath
TTITLE1=Fatboy Slim - Slash Dot Dash
TTITLE2=Good Charlotte - Predictable
TTITLE3=Duran Duran - (Reach Up For The) Sunrise
TTITLE4=Evanescence - Missing
TTITLE5=Brian Mcfadden - Real To Me
TTITLE6=Embrace - Gravity
TTITLE7=Korn - Word Up
TTITLE8=Travis - Walking In The Sun
TTITLE9=Modest Mouse - Ocean Breathes Salty
TTITLE10=Franz Ferdinand - The Dark Of The Matinee
TTITLE11=John Mayer - Daughters
TTITLE12=Lostprophets - Last Summer
TTITLE13=Jill Scott - Golden
TTITLE14=Cake - No Phone
TTITLE15=Prince - Call My Name
TTITLE16=The Offspring - Spare Me The Details
EXTD=
EXTT0=
EXTT1=
EXTT2=
EXTT3=
EXTT4=
EXTT5=
EXTT6=
EXTT7=
EXTT8=
EXTT9=
EXTT10=
EXTT11=
EXTT12=
EXTT13=
EXTT14=
EXTT15=
EXTT16=
PLAYORDER=
